<svg width="40" height="40" viewBox="0 0 40 40" fill="none" xmlns="http://www.w3.org/2000/svg">
<g clip-path="url(#clip0_28_135)">
<rect width="40" height="40" rx="10" fill="black"/>
<path d="M13.234 12.492C13.93 12.492 14.74 12.582 15.664 12.762C16.6 12.942 17.284 13.134 17.716 13.338V17.172H16.006C15.082 15.432 13.81 14.562 12.19 14.562C11.53 14.562 10.924 14.772 10.372 15.192C9.82 15.612 9.382 16.188 9.058 16.92C8.746 17.652 8.59 18.474 8.59 19.386C8.59 20.418 8.746 21.366 9.058 22.23C9.382 23.082 9.868 23.766 10.516 24.282C11.164 24.786 11.968 25.038 12.928 25.038C14.02 25.038 15.574 24.438 17.59 23.238L18.31 24.39L14.998 26.964C14.47 27.12 13.96 27.222 13.468 27.27C12.988 27.33 12.472 27.36 11.92 27.36C10.576 27.36 9.382 27.054 8.338 26.442C7.294 25.83 6.484 24.99 5.908 23.922C5.332 22.842 5.044 21.618 5.044 20.25C5.044 18.846 5.476 17.55 6.34 16.362C7.204 15.162 8.278 14.22 9.562 13.536C10.846 12.84 12.07 12.492 13.234 12.492ZM33.5905 15.336L28.9825 26.424L25.8865 27.342L20.7745 14.94L18.9385 14.022L19.5145 12.852H26.2285V13.86L24.2665 15.03L28.1365 24.498L31.9345 15.318L29.1805 14.022L29.7565 12.852H35.5705L35.5525 13.86L33.5905 15.336Z" fill="white"/>
</g>
<defs>
<clipPath id="clip0_28_135">
<rect width="40" height="40" fill="white"/>
</clipPath>
</defs>
</svg>
